HIERARCHY
ROOT Hips
{
  OFFSET 90.7885 88.945 -76.2838
  CHANNELS 6 Xposition Yposition Zposition Zrotation Xrotation Yrotation
  JOINT LeftUpLeg
  {
    OFFSET 8.64259 1.95398 -2.38835
    CHANNELS 3 Zrotation Xrotation Yrotation
    JOINT LeftLeg
    {
      OFFSET 43.7702 0 0
      CHANNELS 3 Zrotation Xrotation Yrotation
      JOINT LeftFoot
      {
        OFFSET 40.6238 0 0
        CHANNELS 3 Zrotation Xrotation Yrotation
        JOINT LeftToeBase
        {
          OFFSET 12.7242 0 0
          CHANNELS 3 Zrotation Xrotation Yrotation
          End Site
          {
            OFFSET 0 0 0
          }
        }
      }
    }
  }
  JOINT RightUpLeg
  {
    OFFSET -8.2249 1.95398 -2.59336
    CHANNELS 3 Zrotation Xrotation Yrotation
    JOINT RightLeg
    {
      OFFSET 43.5653 0 0
      CHANNELS 3 Zrotation Xrotation Yrotation
      JOINT RightFoot
      {
        OFFSET 40.6238 0 0
        CHANNELS 3 Zrotation Xrotation Yrotation
        JOINT RightToeBase
        {
          OFFSET 12.7242 0 0
          CHANNELS 3 Zrotation Xrotation Yrotation
          End Site
          {
            OFFSET 0 0 0
          }
        }
      }
    }
  }
  JOINT Spine
  {
    OFFSET 0.165834 0.87714 6.61349
    CHANNELS 3 Zrotation Xrotation Yrotation
    JOINT Spine1
    {
      OFFSET 7.38963 1.71661e-005 0
      CHANNELS 3 Zrotation Xrotation Yrotation
      JOINT Spine2
      {
        OFFSET 11.9445 1.14441e-005 0
        CHANNELS 3 Zrotation Xrotation Yrotation
        JOINT Spine3
        {
          OFFSET 14.7254 4.19617e-005 0
          CHANNELS 3 Zrotation Xrotation Yrotation
          JOINT Spine4
          {
            OFFSET 10.9679 0 0
            CHANNELS 3 Zrotation Xrotation Yrotation
            JOINT RightShoulder
            {
              OFFSET 2.46616 -1.6653 3.69651
              CHANNELS 3 Zrotation Xrotation Yrotation
              JOINT RightArm
              {
                OFFSET 13.0012 0 0
                CHANNELS 3 Zrotation Xrotation Yrotation
                JOINT RightForeArm
                {
                  OFFSET 28.7848 1.52588e-005 0
                  CHANNELS 3 Zrotation Xrotation Yrotation
                  JOINT RightHand
                  {
                    OFFSET 26.5688 1.52588e-005 0
                    CHANNELS 3 Zrotation Xrotation Yrotation
                    End Site
                    {
                      OFFSET 0 0 0
                    }
                  }
                }
              }
            }
            JOINT LeftShoulder
            {
              OFFSET 2.38034 -1.29275 -3.7523
              CHANNELS 3 Zrotation Xrotation Yrotation
              JOINT LeftArm
              {
                OFFSET 16.3182 6.10352e-005 0
                CHANNELS 3 Zrotation Xrotation Yrotation
                JOINT LeftForeArm
                {
                  OFFSET 27.0901 0 0
                  CHANNELS 3 Zrotation Xrotation Yrotation
                  JOINT LeftHand
                  {
                    OFFSET 24.5451 1.52588e-005 0
                    CHANNELS 3 Zrotation Xrotation Yrotation
                    End Site
                    {
                      OFFSET 0 0 0
                    }
                  }
                }
              }
            }
            JOINT Neck
            {
              OFFSET 5.0226 -0.0266342 0
              CHANNELS 3 Zrotation Xrotation Yrotation
              JOINT Head
              {
                OFFSET 6.69363 2.86102e-005 0
                CHANNELS 3 Zrotation Xrotation Yrotation
                End Site
                {
                  OFFSET 0 0 0
                }
              }
            }
          }
        }
      }
    }
  }
}
MOTION
Frames:	17
Frame Time:	0.0416667
40.7331 99.4067 -333.589 -162.826 -84.2062 -163.229 -175.056 9.3565 88.8832 5.01252 42.9996 -7.35066 49.981 -5.85365 25.794 166.454 -7.44379 8.22929 171.416 6.07456 87.4374 -27.976 -11.2222 -1.74963 67.4792 -1.46227 4.42183 32.437 -1.45943 2.82862 1.0472 7.26299 -89.8054 12.3486 2.17343 0.142058 0.679436 2.17757 0.0462099 -21.8688 2.03021 0.788954 -1.85616 2.0302 0.788951 102.41 -32.1543 -81.5671 44.9426 -24.8984 -9.72328 4.20751 -34.6793 -14.4742 -27.3216 -1.36643 -7.06838 -89.3391 -51.1918 79.9566 -19.2884 26.5775 -13.76 1.09162 7.43152 -10.0319 -2.50804 -0.0883812 -6.18202 2.63165 -2.10523 -4.27114 -5.54282 -1.38961 0.155785 
40.7986 99.4863 -333.558 -159.919 -84.1963 -160.373 -175.624 8.87564 88.6431 4.04676 41.9801 -6.14441 50.064 -6.00414 25.3943 167.029 -6.66708 9.35521 171.343 5.33361 87.3076 -26.2626 -11.4437 -1.72676 68.3802 -2.14001 3.57088 30.902 -1.75184 3.753 1.06867 7.23969 -89.8138 12.3955 2.21204 0.119608 0.726405 2.21516 0.0220779 -21.8224 2.07378 0.779162 -1.80978 2.07379 0.779172 98.5988 -34.3975 -88.8949 43.5592 -20.9523 -6.6877 2.94055 -33.2677 -15.4629 -26.9168 -1.21897 -7.44505 -89.6282 -51.4644 79.585 -19.4127 26.458 -13.3905 0.975506 7.5522 -9.84259 -1.70728 -0.105195 -6.90397 1.7784 -2.30441 -4.10273 -5.28233 -1.63519 -0.163738 
40.7444 99.6533 -333.53 -158.306 -84.0261 -158.712 -176.02 7.15145 88.7703 3.2983 40.7808 -5.07429 49.7578 -6.37267 24.4436 167.883 -5.00679 11.6868 171.024 2.64638 87.5713 -21.2908 -12.7318 -1.45696 72.0218 -4.749 0.0507583 23.822 -2.0805 5.47588 1.09205 7.27269 -89.8302 12.3299 2.25084 0.0844222 0.660897 2.25237 -0.014783 -21.8886 2.12135 0.75729 -1.87593 2.12136 0.757287 98.3995 -34.6378 -89.2453 43.3176 -20.4945 -6.37545 2.91895 -33.382 -16.0155 -27.2239 -1.31568 -6.97752 -89.7439 -51.3883 79.3992 -19.5103 26.581 -13.6306 0.618169 6.95176 -9.32014 -1.97138 -0.102018 -8.07844 2.70379 -2.56964 -3.48059 -6.87048 -1.92884 -1.01196 
40.6501 100.241 -333.467 -156.667 -83.9886 -156.868 -176.355 4.7909 89.1349 2.42135 38.9537 -3.88884 49.2854 -6.79144 22.8025 167.159 0.368407 19.2738 171.003 0.826822 87.7089 -17.6315 -12.9124 -1.40638 69.8484 -4.17777 0.354455 23.9587 -1.97735 5.21771 1.09168 7.26261 -89.8725 12.3509 2.22994 0.00163047 0.68184 2.22786 -0.0965684 -21.8677 2.12632 0.672063 -1.85502 2.12631 0.672052 98.3252 -34.4677 -89.4063 43.2762 -20.4703 -6.30568 3.68569 -33.0848 -15.8676 -27.182 -1.33219 -6.78001 -89.9157 -51.6008 79.1904 -19.432 27.0162 -13.3364 0.4093 6.39632 -9.56619 -2.36969 -0.0930145 -8.13334 2.65998 -2.94478 -3.17559 -7.66131 -2.32339 -1.40458 
40.5105 100.757 -333.273 -154.646 -83.9143 -154.815 -176.919 1.92669 89.1569 1.20738 35.7935 -2.26528 48.8023 -7.11685 20.2945 159.229 8.82598 34.3443 170.846 -0.916749 87.7363 -14.1016 -13.0327 -1.28805 68.1984 -3.8696 0.796271 23.784 -1.96085 5.20117 1.08051 7.28214 -89.8937 12.3121 2.19777 -0.035962 0.643042 2.19406 -0.132707 -21.9062 2.10692 0.626522 -1.89354 2.10693 0.626518 98.1212 -34.6012 -89.7805 42.9687 -20.6885 -6.36553 3.75944 -33.1264 -16.0164 -27.5334 -1.59004 -5.46952 -89.8326 -51.9323 79.3803 -19.2485 26.6456 -13.5467 0.612156 7.0214 -9.38663 -0.352401 -0.120601 -6.07597 3.26243 -3.37604 -2.89579 -8.69187 -2.76419 -1.46111 
40.1679 101.111 -333.078 -153.109 -84.2146 -153.1 -176.532 0.295082 90.0064 -1.26881 31.9129 -2.09283 49.0842 -6.65112 17.0812 133.793 9.38139 55.6662 171.132 -2.47307 88.293 -10.5584 -13.0309 -1.3247 66.6475 -3.59376 0.57541 23.7035 -1.88245 5.04439 1.06447 7.24577 -89.9233 12.3853 2.15171 -0.0918126 0.716112 2.14558 -0.186473 -21.8327 2.07977 0.559391 -1.82003 2.07977 0.559393 97.9323 -34.7027 -90.1286 42.6635 -20.796 -6.20981 3.99686 -33.4845 -15.9261 -27.869 -1.52068 -5.92869 -90.1608 -51.977 78.9092 -18.9994 26.6356 -13.4385 0.535721 6.58577 -9.28853 -0.615603 -0.119799 -6.27359 3.41508 -3.69904 -2.73392 -9.33019 -3.08555 -1.66887 
39.5998 101.166 -332.683 -153.102 -84.2776 -153.322 -176.65 -1.48718 90.215 -4.45149 24.6708 -1.30063 49.8239 -5.64386 11.7716 96.9571 -4.96467 56.8818 171.159 -2.89249 88.355 -10.2678 -13.0275 -1.30409 66.7625 -3.73565 0.250634 23.8195 -1.90564 5.0799 1.01294 7.26068 -89.9364 12.3555 2.0431 -0.10497 0.686136 2.0365 -0.194831 -21.8614 1.98016 0.514171 -1.84873 1.98015 0.51416 97.4571 -33.9603 -91.1389 43.0536 -20.1741 -5.65978 2.28629 -33.0718 -17.4964 -26.728 -1.55181 -5.62225 -89.9758 -52.3245 79.251 -18.846 26.4424 -13.5637 0.636365 6.53912 -9.45983 -1.03989 -0.118501 -6.78379 3.76231 -3.60832 -1.70178 -10.1704 -3.10511 -2.34969 
38.9031 101.118 -332.231 -155.033 -84.552 -155.309 -176.692 -1.82361 90.9311 -9.05208 13.652 -0.775851 51.3843 -3.98392 3.58706 65.5625 -13.5464 34.9722 171.093 -3.05466 88.6143 -10.4377 -12.839 -0.997912 67.6322 -4.14048 0.195162 22.7462 -1.81822 5.0145 0.957966 7.26337 -89.9461 12.3497 1.92931 -0.111103 0.680196 1.92255 -0.195949 -21.866 1.87347 0.474079 -1.85336 1.87347 0.47408 96.5457 -33.6722 -92.9341 42.8326 -19.2697 -5.09552 2.64678 -32.1868 -17.2783 -27.1646 -1.34605 -6.46676 -90.038 -52.0909 79.1124 -19.3409 25.8811 -13.4797 0.903504 6.77923 -9.31245 -1.57857 -0.108832 -7.02405 3.68784 -3.6102 -1.81078 -10.4789 -3.11364 -1.95679 
37.8124 101.073 -331.596 -159.204 -84.6529 -159.356 -176.01 -2.88538 92.4591 -11.4348 0.651895 -1.0713 51.5678 -2.61789 -7.29217 51.8084 -9.99163 18.2005 171.525 -4.05879 89.436 -9.81728 -11.9157 -0.97142 68.0537 -4.44006 -0.0315926 22.5014 -1.92482 5.25767 0.898858 7.29169 -89.9976 12.2935 1.78752 -0.19662 0.623735 1.77714 -0.275135 -21.9211 1.76394 0.349868 -1.90842 1.76394 0.349859 95.9083 -33.0319 -94.2836 42.5869 -19.2712 -5.06712 3.20505 -31.5183 -16.551 -26.6103 -1.33414 -6.30188 -89.9202 -52.781 79.4249 -18.7961 25.4566 -13.4737 0.911531 5.75538 -9.23285 -1.3701 -0.120836 -7.83234 3.0122 -3.50978 -1.59455 -10.3927 -3.10184 -1.44901 
36.648 100.903 -330.804 -169.932 -84.7209 -170.79 -175.928 -4.03598 92.979 -12.4507 -9.69786 -1.0016 50.597 -1.47206 -16.7481 46.6443 -6.23887 9.07191 170.99 -4.016 89.1382 -11.6292 -11.4107 -0.526753 69.6415 -4.89178 -0.168809 22.2127 -1.91539 5.26762 0.76296 7.33779 -89.9411 12.1997 1.54445 -0.0544973 0.529656 1.54055 -0.122437 -22.0125 1.48941 0.412302 -1.99986 1.4894 0.412288 94.0942 -32.7712 -97.8617 42.4571 -17.9679 -4.14539 3.28727 -31.3295 -16.2193 -26.3869 -1.3022 -6.40948 -89.4716 -53.3505 80.1864 -18.734 24.4687 -12.9105 1.44971 5.43879 -9.78252 -1.83389 -0.0999392 -7.51687 1.71433 -2.97559 -1.43754 -9.59145 -2.67344 -0.782642 
35.2228 100.591 -329.869 -174.169 -84.6441 -175.502 -175.173 -3.84751 93.7181 -14.2132 -10.1225 -1.29182 51.5762 -0.616329 -18.7256 46.7514 -6.15446 8.86777 170.764 -4.39645 89.2116 -12.6966 -11.0659 -0.20147 71.5602 -5.61895 -0.0765629 21.5597 -2.06869 5.63844 0.717716 7.39107 -89.9 12.0925 1.47409 0.0376608 0.422367 1.47432 -0.0272772 -22.119 1.3946 0.479025 -2.10637 1.3946 0.479024 92.7806 -32.4315 -100.498 42.0244 -17.8405 -4.23501 3.85091 -30.6013 -15.6583 -27.2244 -1.34759 -5.98977 -89.2918 -53.7668 80.525 -19.3603 22.9675 -11.6676 1.65198 1.38119 -10.307 -4.60478 -0.00822565 -8.81575 0.694843 -2.37781 -1.12622 -8.98095 -2.17921 -0.220958 
33.8226 99.7467 -329.268 173.199 -84.7891 171.71 -173.828 0.858208 94.85 -21.378 1.79778 -1.04126 56.4299 0.501626 -11.6764 53.3317 -10.0821 18.6904 170.39 -2.8674 89.6685 -16.8212 -10.2744 0.597231 74.666 -6.40041 -0.37815 20.9725 -2.41471 6.37832 0.552447 7.48349 -89.9237 11.9074 1.13445 0.0297715 0.236965 1.13466 -0.0202029 -22.3018 1.07305 0.369377 -2.28915 1.07305 0.369381 90.8942 -31.0669 -104.614 42.0301 -17.0621 -4.19093 3.16876 -29.3147 -16.3758 -26.5369 -1.2986 -5.84327 -88.092 -54.2343 82.3291 -19.9997 20.0505 -10.7073 3.05357 1.18267 -11.1492 -3.33485 -0.0597616 -7.58047 0.574519 -1.43291 0.825929 -8.24687 -1.5016 -0.733909 
32.8615 98.5466 -328.726 154.575 -84.2367 152.998 -173.536 7.76235 94.2157 -30.4695 19.0625 0.0203581 60.9253 1.41163 1.13738 68.4832 -12.2677 32.6737 169.61 -1.22374 89.6881 -21.6134 -8.66905 1.63535 78.8061 -7.23275 0.399989 21.0062 -2.37768 6.3026 0.443934 7.59106 -89.9609 11.6922 0.90136 -0.0165113 0.0215526 0.89977 -0.0561816 -22.516 0.864654 0.255173 -2.50332 0.864641 0.255156 89.1042 -30.4798 -108.335 40.5404 -17.4395 -4.26671 4.81218 -28.6691 -15.3587 -25.8175 -1.04733 -6.94385 -87.0918 -55.5096 83.9558 -19.3737 17.7609 -8.73443 3.8988 -0.620895 -13.8387 -0.522298 -0.143378 -7.64229 0.68865 -0.862825 2.00932 -6.83571 -1.10821 -0.918514 
32.3813 98.2628 -327.404 144.589 -84.3219 141.794 -174.408 13.3318 91.751 -32.8346 22.6683 -0.16706 63.2732 2.24025 5.74933 67.2836 -11.5365 30.0272 169.603 -0.762515 89.1395 -23.2676 -7.42121 1.20706 80.493 -7.33464 1.09803 20.4854 -1.9042 5.41348 0.702543 7.68921 -89.8517 11.4956 1.46709 0.145394 -0.174538 1.47207 0.0806649 -22.7156 1.35555 0.579676 -2.70291 1.35556 0.579676 88.6272 -30.9705 -109.066 39.6462 -16.5617 -4.27709 4.92649 -28.266 -14.1966 -25.072 -0.965741 -7.30481 -86.8083 -55.1095 84.2988 -19.6687 17.2107 -8.36358 4.2783 0.0994444 -13.5395 -1.36095 -0.114123 -7.07943 1.48488 -1.54948 1.45223 -6.78978 -1.70263 -1.25315 
32.3815 98.7716 -325.387 133.922 -84.717 129.266 -176.672 17.2994 88.0838 -26.9875 9.24191 -1.41095 65.2573 3.2514 -1.54631 31.8562 -7.25715 11.3589 169.249 -2.57506 87.5535 -19.6225 -6.93252 0.542812 79.9808 -7.57247 1.19484 20.6212 -1.63522 4.86663 0.852304 7.71762 -89.6901 11.436 1.84057 0.431017 -0.233658 1.85775 0.349565 -22.7769 1.62592 0.964388 -2.76424 1.62592 0.964382 88.6879 -30.1919 -109.268 40.275 -16.9355 -4.69139 4.32594 -27.4865 -15.2397 -25.0713 -0.967603 -7.06305 -86.8726 -55.2624 84.2299 -20.0533 16.3467 -5.54738 4.49107 -0.108915 -13.8451 -1.31252 -0.108448 -6.24408 2.37448 -1.39306 2.74911 -6.16136 -1.73363 -2.31164 
32.6653 98.8116 -322.431 131.692 -85.509 126.183 -179.413 18.1258 85.5581 -13.4856 4.93819 -1.70323 64.2572 3.23125 -2.41185 18.8656 -3.18645 5.41999 168.858 -5.35042 86.5367 -16.2855 -6.80173 0.0106974 80.5148 -8.20931 1.37611 21.3926 -1.68536 4.89157 1.07406 7.76187 -89.6846 11.3477 2.28435 0.399283 -0.321319 2.29971 0.298303 -22.8696 2.0587 1.06763 -2.85697 2.0587 1.06763 88.5042 -29.7555 -109.814 39.7642 -17.5109 -5.35711 3.57743 -27.9324 -16.7846 -24.4908 -0.799634 -8.16241 -86.7546 -56.2624 84.5409 -19.9467 15.4994 -1.97648 4.65733 -0.730803 -14.8219 -3.03163 -0.0762085 -6.6295 3.14277 -1.42064 4.89323 -5.65346 -2.12137 -3.02783 
33.2278 98.1058 -318.14 149.877 -86.2283 143.865 178.688 19.6134 83.934 -8.28911 3.60078 -1.75698 64.6795 3.49015 -1.6327 17.6708 -2.1766 4.38619 168.192 -8.65445 85.1566 -15.5313 -8.31771 -0.690495 81.8159 -9.13809 0.715624 24.3209 -1.69886 4.58612 1.3213 7.81047 -89.7442 11.2527 2.74866 0.237481 -0.415385 2.75645 0.116172 -22.9712 2.55013 1.05311 -2.95854 2.55013 1.05311 88.4497 -29.0534 -110.226 39.4901 -17.8911 -6.49823 3.81443 -28.0677 -16.6064 -24.7354 -0.936655 -7.40396 -86.583 -57.8786 85.0043 -19.8373 15.3251 0.894325 4.09578 -2.26976 -14.08 -2.5162 -0.0880385 -6.35364 2.14501 -0.945685 7.00294 -4.83002 -1.94638 -3.81427 
